<svg width="22.000000" height="22.000000" viewBox="0 0 22 22" fill="none" xmlns="http://www.w3.org/2000/svg" xmlns:xlink="http://www.w3.org/1999/xlink">
	<desc>
			Created with Pixso.
	</desc>
	<defs>
		<clipPath id="clip13_258">
			<rect id="checkbox" width="22.000000" height="22.000000" fill="white" fill-opacity="0"/>
		</clipPath>
	</defs>
	<g clip-path="url(#clip13_258)">
		<path id="Rectangle 2701 (Stroke)" d="M12.39 1L9.6 1C7.9 1 6.69 1 5.74 1.07C4.8 1.15 4.2 1.3 3.72 1.54C2.78 2.02 2.02 2.78 1.54 3.73C1.3 4.2 1.15 4.8 1.07 5.74C1 6.69 1 7.9 1 9.6L1 12.4C1 14.09 1 15.3 1.07 16.25C1.15 17.19 1.3 17.79 1.54 18.27C2.02 19.21 2.78 19.97 3.72 20.45C4.2 20.69 4.8 20.84 5.74 20.92C6.69 20.99 7.9 21 9.6 21L12.39 21C14.09 21 15.3 20.99 16.25 20.92C17.19 20.84 17.79 20.69 18.27 20.45C19.21 19.97 19.97 19.21 20.45 18.27C20.69 17.79 20.84 17.19 20.92 16.25C20.99 15.3 21 14.09 21 12.4L21 9.6C21 7.9 20.99 6.69 20.92 5.74C20.84 4.8 20.69 4.2 20.45 3.73C19.97 2.78 19.21 2.02 18.27 1.54C17.79 1.3 17.19 1.15 16.25 1.07C15.3 1 14.09 1 12.39 1ZM0.65 3.27C0 4.55 0 6.23 0 9.6L0 12.4C0 15.76 0 17.44 0.65 18.72C1.22 19.85 2.14 20.77 3.27 21.34C4.55 22 6.23 22 9.6 22L12.39 22C15.76 22 17.44 22 18.72 21.34C19.85 20.77 20.77 19.85 21.34 18.72C22 17.44 22 15.76 22 12.4L22 9.6C22 6.23 22 4.55 21.34 3.27C20.77 2.14 19.85 1.22 18.72 0.65C17.44 0 15.76 0 12.39 0L9.6 0C6.23 0 4.55 0 3.27 0.65C2.14 1.22 1.22 2.14 0.65 3.27Z" fill="#000000" fill-opacity="0.200000" fill-rule="evenodd"/>
	</g>
</svg>
