<svg width="22.000000" height="22.000000" viewBox="0 0 22 22" fill="none" xmlns="http://www.w3.org/2000/svg" xmlns:xlink="http://www.w3.org/1999/xlink">
	<desc>
			Created with Pixso.
	</desc>
	<defs>
		<clipPath id="clip7_2001">
			<rect id="checkbox" width="22.000000" height="22.000000" fill="white" fill-opacity="0"/>
		</clipPath>
	</defs>
	<g clip-path="url(#clip7_2001)">
		<path id="Rectangle 2701 (Stroke)" d="M0.65 3.27C0 4.55 0 6.23 0 9.6L0 12.4C0 15.76 0 17.44 0.65 18.72C1.22 19.85 2.14 20.77 3.27 21.34C4.55 22 6.23 22 9.59 22L12.4 22C15.76 22 17.44 22 18.72 21.34C19.85 20.77 20.77 19.85 21.34 18.72C22 17.44 22 15.76 22 12.4L22 9.6C22 6.23 22 4.55 21.34 3.27C20.77 2.14 19.85 1.22 18.72 0.65C17.44 0 15.76 0 12.4 0L9.59 0C6.23 0 4.55 0 3.27 0.65C2.14 1.22 1.22 2.14 0.65 3.27Z" fill="#CB11AB" fill-opacity="1.000000" fill-rule="evenodd"/>
		<path id="Path Copy 2 (Stroke)" d="M17.73 6.67L9.58 15.48L5.25 10.66L6.74 9.33L9.6 12.51L16.26 5.32L17.73 6.67Z" fill="#FFFFFF" fill-opacity="1.000000" fill-rule="evenodd"/>
	</g>
</svg>
